<svg xmlns="http://www.w3.org/2000/svg" viewBox="0 0 97.02 76.31"><defs><style>.cls-1{fill:#f8bd0a;}.cls-2{fill:#cf3b29;}.cls-3{fill:#fd8345;}.cls-4{fill:#f5f5f5;}</style></defs><g id="Layer_2" data-name="Layer 2"><g id="Layer_3" data-name="Layer 3"><path class="cls-1" d="M34.72,30.33v44a2,2,0,0,1-2,2H1.26A1.25,1.25,0,0,1,0,75.05H0a1.29,1.29,0,0,1,.22-.71L31.07,29.2A2,2,0,0,1,34.72,30.33Z"/><path class="cls-2" d="M79.66,53.32v22a1,1,0,0,0,1,1H96.39a.63.63,0,0,0,.63-.63h0a.63.63,0,0,0-.11-.35L81.49,52.76A1,1,0,0,0,79.66,53.32Z"/><path class="cls-3" d="M74.55,47.65V74.31a2,2,0,0,1-2,2H41.83a2,2,0,0,1-2-2V2A2,2,0,0,1,43.48.88L73.81,45.26A4.27,4.27,0,0,1,74.55,47.65Z"/><rect class="cls-4" x="47.79" y="51.74" width="8.3" height="8.3" rx="2"/><rect class="cls-4" x="58.29" y="51.74" width="8.3" height="8.3" rx="2"/><rect class="cls-4" x="47.79" y="62.25" width="8.3" height="8.3" rx="2"/><rect class="cls-4" x="58.29" y="62.25" width="8.3" height="8.3" rx="2"/></g></g></svg>